<svg width="1024" height="753" viewBox="0 0 1024 753" fill="none" xmlns="http://www.w3.org/2000/svg">
<g clip-path="url(#clip0_122_130)">
<rect width="1024" height="753" fill="#121214"/>
<g clip-path="url(#clip1_122_130)">
<g opacity="0.2" filter="url(#filter0_f_122_130)">
<ellipse cx="528.5" cy="170" rx="670.5" ry="350" fill="#B3A659"/>
</g>
<path d="M49.0349 406C50.5302 406 51.6622 406.63 52.4308 407.891C53.2134 409.138 53.6047 410.953 53.6047 413.336C53.6047 415.719 53.2134 417.541 52.4308 418.802C51.6622 420.063 50.5302 420.693 49.0349 420.693C47.5536 420.693 46.4216 420.063 45.639 418.802C44.8564 417.541 44.4651 415.719 44.4651 413.336C44.4651 410.967 44.8564 409.152 45.639 407.891C46.4216 406.63 47.5536 406 49.0349 406ZM45.9534 413.336C45.9534 415.026 46.1072 416.35 46.4146 417.306L51.0683 408.099C50.5791 407.448 49.9013 407.122 49.0349 407.122C48.0706 407.122 47.316 407.635 46.771 408.66C46.2259 409.672 45.9534 411.23 45.9534 413.336ZM49.0349 419.55C50.0131 419.55 50.7748 419.044 51.3198 418.033C51.8648 417.008 52.1373 415.442 52.1373 413.336C52.1373 411.549 51.9627 410.163 51.6133 409.18L46.9596 418.469C47.4627 419.19 48.1545 419.55 49.0349 419.55Z" fill="url(#paint0_linear_122_130)" fill-opacity="0.6"/>
<path d="M50.2926 443.135H53.3741V444.236H45.3874V443.135H48.9511V431.455L45.5551 433.471L44.9682 432.536L49.1607 429.959H50.2926V443.135Z" fill="url(#paint1_linear_122_130)" fill-opacity="0.6"/>
<path d="M49.0349 453.502C50.5302 453.502 51.6622 454.133 52.4308 455.393C53.2134 456.64 53.6047 458.455 53.6047 460.838C53.6047 463.221 53.2134 465.043 52.4308 466.304C51.6622 467.565 50.5302 468.195 49.0349 468.195C47.5536 468.195 46.4216 467.565 45.639 466.304C44.8564 465.043 44.4651 463.221 44.4651 460.838C44.4651 458.469 44.8564 456.654 45.639 455.393C46.4216 454.133 47.5536 453.502 49.0349 453.502ZM45.9534 460.838C45.9534 462.529 46.1072 463.852 46.4146 464.808L51.0683 455.601C50.5791 454.95 49.9013 454.624 49.0349 454.624C48.0706 454.624 47.316 455.137 46.771 456.162C46.2259 457.174 45.9534 458.732 45.9534 460.838ZM49.0349 467.052C50.0131 467.052 50.7748 466.546 51.3198 465.535C51.8648 464.51 52.1373 462.944 52.1373 460.838C52.1373 459.051 51.9627 457.665 51.6133 456.682L46.9596 465.971C47.4627 466.692 48.1545 467.052 49.0349 467.052Z" fill="url(#paint2_linear_122_130)" fill-opacity="0.6"/>
<path d="M50.2926 490.637H53.3741V491.738H45.3874V490.637H48.9511V478.957L45.5551 480.973L44.9682 480.038L49.1607 477.461H50.2926V490.637Z" fill="url(#paint3_linear_122_130)" fill-opacity="0.6"/>
<path d="M50.2926 514.388H53.3741V515.489H45.3874V514.388H48.9511V502.708L45.5551 504.724L44.9682 503.789L49.1607 501.212H50.2926V514.388Z" fill="url(#paint4_linear_122_130)" fill-opacity="0.6"/>
<path d="M49.0349 524.755C50.5302 524.755 51.6622 525.386 52.4308 526.646C53.2134 527.893 53.6047 529.708 53.6047 532.091C53.6047 534.474 53.2134 536.296 52.4308 537.557C51.6622 538.818 50.5302 539.448 49.0349 539.448C47.5536 539.448 46.4216 538.818 45.639 537.557C44.8564 536.296 44.4651 534.474 44.4651 532.091C44.4651 529.722 44.8564 527.907 45.639 526.646C46.4216 525.386 47.5536 524.755 49.0349 524.755ZM45.9534 532.091C45.9534 533.782 46.1072 535.105 46.4146 536.061L51.0683 526.854C50.5791 526.203 49.9013 525.878 49.0349 525.878C48.0706 525.878 47.316 526.39 46.771 527.415C46.2259 528.427 45.9534 529.985 45.9534 532.091ZM49.0349 538.305C50.0131 538.305 50.7748 537.8 51.3198 536.788C51.8648 535.763 52.1373 534.197 52.1373 532.091C52.1373 530.304 51.9627 528.919 51.6133 527.935L46.9596 537.225C47.4627 537.945 48.1545 538.305 49.0349 538.305Z" fill="url(#paint5_linear_122_130)" fill-opacity="0.6"/>
<path d="M50.2926 561.89H53.3741V562.992H45.3874V561.89H48.9511V550.21L45.5551 552.226L44.9682 551.291L49.1607 548.714H50.2926V561.89Z" fill="url(#paint6_linear_122_130)" fill-opacity="0.6"/>
<path d="M49.0349 572.257C50.5302 572.257 51.6622 572.888 52.4308 574.149C53.2134 575.396 53.6047 577.211 53.6047 579.594C53.6047 581.977 53.2134 583.798 52.4308 585.059C51.6622 586.32 50.5302 586.95 49.0349 586.95C47.5536 586.95 46.4216 586.32 45.639 585.059C44.8564 583.798 44.4651 581.977 44.4651 579.594C44.4651 577.224 44.8564 575.409 45.639 574.149C46.4216 572.888 47.5536 572.257 49.0349 572.257ZM45.9534 579.594C45.9534 581.284 46.1072 582.607 46.4146 583.563L51.0683 574.356C50.5791 573.705 49.9013 573.38 49.0349 573.38C48.0706 573.38 47.316 573.892 46.771 574.918C46.2259 575.929 45.9534 577.488 45.9534 579.594ZM49.0349 585.807C50.0131 585.807 50.7748 585.302 51.3198 584.29C51.8648 583.265 52.1373 581.699 52.1373 579.594C52.1373 577.806 51.9627 576.421 51.6133 575.437L46.9596 584.727C47.4627 585.447 48.1545 585.807 49.0349 585.807Z" fill="url(#paint7_linear_122_130)" fill-opacity="0.6"/>
<path d="M49.0349 596.008C50.5302 596.008 51.6622 596.639 52.4308 597.9C53.2134 599.147 53.6047 600.962 53.6047 603.345C53.6047 605.728 53.2134 607.549 52.4308 608.81C51.6622 610.071 50.5302 610.701 49.0349 610.701C47.5536 610.701 46.4216 610.071 45.639 608.81C44.8564 607.549 44.4651 605.728 44.4651 603.345C44.4651 600.975 44.8564 599.16 45.639 597.9C46.4216 596.639 47.5536 596.008 49.0349 596.008ZM45.9534 603.345C45.9534 605.035 46.1072 606.358 46.4146 607.314L51.0683 598.107C50.5791 597.456 49.9013 597.131 49.0349 597.131C48.0706 597.131 47.316 597.643 46.771 598.669C46.2259 599.68 45.9534 601.239 45.9534 603.345ZM49.0349 609.558C50.0131 609.558 50.7748 609.053 51.3198 608.041C51.8648 607.016 52.1373 605.451 52.1373 603.345C52.1373 601.557 51.9627 600.172 51.6133 599.188L46.9596 608.478C47.4627 609.198 48.1545 609.558 49.0349 609.558Z" fill="url(#paint8_linear_122_130)" fill-opacity="0.6"/>
<path d="M50.2926 633.143H53.3741V634.245H45.3874V633.143H48.9511V621.464L45.5551 623.48L44.9682 622.544L49.1607 619.967H50.2926V633.143Z" fill="url(#paint9_linear_122_130)" fill-opacity="0.6"/>
<path d="M49.0349 643.511C50.5302 643.511 51.6622 644.141 52.4308 645.402C53.2134 646.649 53.6047 648.464 53.6047 650.847C53.6047 653.23 53.2134 655.052 52.4308 656.312C51.6622 657.573 50.5302 658.204 49.0349 658.204C47.5536 658.204 46.4216 657.573 45.639 656.312C44.8564 655.052 44.4651 653.23 44.4651 650.847C44.4651 648.478 44.8564 646.663 45.639 645.402C46.4216 644.141 47.5536 643.511 49.0349 643.511ZM45.9534 650.847C45.9534 652.537 46.1072 653.86 46.4146 654.816L51.0683 645.61C50.5791 644.958 49.9013 644.633 49.0349 644.633C48.0706 644.633 47.316 645.145 46.771 646.171C46.2259 647.182 45.9534 648.741 45.9534 650.847ZM49.0349 657.061C50.0131 657.061 50.7748 656.555 51.3198 655.543C51.8648 654.518 52.1373 652.953 52.1373 650.847C52.1373 649.059 51.9627 647.674 51.6133 646.69L46.9596 655.98C47.4627 656.7 48.1545 657.061 49.0349 657.061Z" fill="url(#paint10_linear_122_130)" fill-opacity="0.6"/>
<path d="M50.2926 680.645H53.3741V681.747H45.3874V680.645H48.9511V668.966L45.5551 670.982L44.9682 670.046L49.1607 667.469H50.2926V680.645Z" fill="url(#paint11_linear_122_130)" fill-opacity="0.6"/>
<path d="M50.2926 704.396H53.3741V705.498H45.3874V704.396H48.9511V692.717L45.5551 694.733L44.9682 693.798L49.1607 691.221H50.2926V704.396Z" fill="url(#paint12_linear_122_130)" fill-opacity="0.6"/>
<path d="M87.9651 453.502C89.4604 453.502 90.5924 454.133 91.361 455.393C92.1436 456.64 92.5349 458.455 92.5349 460.838C92.5349 463.221 92.1436 465.043 91.361 466.304C90.5924 467.565 89.4604 468.195 87.9651 468.195C86.4838 468.195 85.3518 467.565 84.5692 466.304C83.7866 465.043 83.3953 463.221 83.3953 460.838C83.3953 458.469 83.7866 456.654 84.5692 455.393C85.3518 454.133 86.4838 453.502 87.9651 453.502ZM84.8836 460.838C84.8836 462.529 85.0374 463.852 85.3448 464.808L89.9985 455.601C89.5093 454.95 88.8315 454.624 87.9651 454.624C87.0008 454.624 86.2462 455.137 85.7012 456.162C85.1561 457.174 84.8836 458.732 84.8836 460.838ZM87.9651 467.052C88.9433 467.052 89.705 466.546 90.25 465.535C90.795 464.51 91.0675 462.944 91.0675 460.838C91.0675 459.051 90.8928 457.665 90.5435 456.682L85.8898 465.971C86.3929 466.692 87.0847 467.052 87.9651 467.052Z" fill="url(#paint13_linear_122_130)" fill-opacity="0.6"/>
<path d="M89.2228 490.637H92.3043V491.738H84.3176V490.637H87.8812V478.957L84.4853 480.973L83.8984 480.038L88.0909 477.461H89.2228V490.637Z" fill="url(#paint14_linear_122_130)" fill-opacity="0.6"/>
<path d="M87.9651 501.004C89.4604 501.004 90.5924 501.635 91.361 502.895C92.1436 504.142 92.5349 505.957 92.5349 508.34C92.5349 510.723 92.1436 512.545 91.361 513.806C90.5924 515.067 89.4604 515.697 87.9651 515.697C86.4838 515.697 85.3518 515.067 84.5692 513.806C83.7866 512.545 83.3953 510.723 83.3953 508.34C83.3953 505.971 83.7866 504.156 84.5692 502.895C85.3518 501.635 86.4838 501.004 87.9651 501.004ZM84.8836 508.34C84.8836 510.031 85.0374 511.354 85.3448 512.31L89.9985 503.103C89.5093 502.452 88.8315 502.126 87.9651 502.126C87.0008 502.126 86.2462 502.639 85.7012 503.664C85.1561 504.676 84.8836 506.234 84.8836 508.34ZM87.9651 514.554C88.9433 514.554 89.705 514.049 90.25 513.037C90.795 512.012 91.0675 510.446 91.0675 508.34C91.0675 506.553 90.8928 505.168 90.5435 504.184L85.8898 513.474C86.3929 514.194 87.0847 514.554 87.9651 514.554Z" fill="url(#paint15_linear_122_130)" fill-opacity="0.6"/>
<path d="M87.9651 524.755C89.4604 524.755 90.5924 525.386 91.361 526.646C92.1436 527.893 92.5349 529.708 92.5349 532.091C92.5349 534.474 92.1436 536.296 91.361 537.557C90.5924 538.818 89.4604 539.448 87.9651 539.448C86.4838 539.448 85.3518 538.818 84.5692 537.557C83.7866 536.296 83.3953 534.474 83.3953 532.091C83.3953 529.722 83.7866 527.907 84.5692 526.646C85.3518 525.386 86.4838 524.755 87.9651 524.755ZM84.8836 532.091C84.8836 533.782 85.0374 535.105 85.3448 536.061L89.9985 526.854C89.5093 526.203 88.8315 525.878 87.9651 525.878C87.0008 525.878 86.2462 526.39 85.7012 527.415C85.1561 528.427 84.8836 529.985 84.8836 532.091ZM87.9651 538.305C88.9433 538.305 89.705 537.8 90.25 536.788C90.795 535.763 91.0675 534.197 91.0675 532.091C91.0675 530.304 90.8928 528.919 90.5435 527.935L85.8898 537.225C86.3929 537.945 87.0847 538.305 87.9651 538.305Z" fill="url(#paint16_linear_122_130)" fill-opacity="0.6"/>
<path d="M89.2228 561.89H92.3043V562.992H84.3176V561.89H87.8812V550.21L84.4853 552.226L83.8984 551.291L88.0909 548.714H89.2228V561.89Z" fill="url(#paint17_linear_122_130)" fill-opacity="0.6"/>
<path d="M87.9651 572.257C89.4604 572.257 90.5924 572.888 91.361 574.149C92.1436 575.396 92.5349 577.211 92.5349 579.594C92.5349 581.977 92.1436 583.798 91.361 585.059C90.5924 586.32 89.4604 586.95 87.9651 586.95C86.4838 586.95 85.3518 586.32 84.5692 585.059C83.7866 583.798 83.3953 581.977 83.3953 579.594C83.3953 577.224 83.7866 575.409 84.5692 574.149C85.3518 572.888 86.4838 572.257 87.9651 572.257ZM84.8836 579.594C84.8836 581.284 85.0374 582.607 85.3448 583.563L89.9985 574.356C89.5093 573.705 88.8315 573.38 87.9651 573.38C87.0008 573.38 86.2462 573.892 85.7012 574.918C85.1561 575.929 84.8836 577.488 84.8836 579.594ZM87.9651 585.807C88.9433 585.807 89.705 585.302 90.25 584.29C90.795 583.265 91.0675 581.699 91.0675 579.594C91.0675 577.806 90.8928 576.421 90.5435 575.437L85.8898 584.727C86.3929 585.447 87.0847 585.807 87.9651 585.807Z" fill="url(#paint18_linear_122_130)" fill-opacity="0.6"/>
<path d="M89.2228 609.392H92.3043V610.494H84.3176V609.392H87.8812V597.713L84.4853 599.728L83.8984 598.793L88.0909 596.216H89.2228V609.392Z" fill="url(#paint19_linear_122_130)" fill-opacity="0.6"/>
<path d="M87.9651 619.76C89.4604 619.76 90.5924 620.39 91.361 621.651C92.1436 622.898 92.5349 624.713 92.5349 627.096C92.5349 629.479 92.1436 631.301 91.361 632.561C90.5924 633.822 89.4604 634.453 87.9651 634.453C86.4838 634.453 85.3518 633.822 84.5692 632.561C83.7866 631.301 83.3953 629.479 83.3953 627.096C83.3953 624.726 83.7866 622.911 84.5692 621.651C85.3518 620.39 86.4838 619.76 87.9651 619.76ZM84.8836 627.096C84.8836 628.786 85.0374 630.109 85.3448 631.065L89.9985 621.859C89.5093 621.207 88.8315 620.882 87.9651 620.882C87.0008 620.882 86.2462 621.394 85.7012 622.42C85.1561 623.431 84.8836 624.99 84.8836 627.096ZM87.9651 633.31C88.9433 633.31 89.705 632.804 90.25 631.792C90.795 630.767 91.0675 629.202 91.0675 627.096C91.0675 625.308 90.8928 623.923 90.5435 622.939L85.8898 632.229C86.3929 632.949 87.0847 633.31 87.9651 633.31Z" fill="url(#paint20_linear_122_130)" fill-opacity="0.6"/>
<path d="M87.9651 643.511C89.4604 643.511 90.5924 644.141 91.361 645.402C92.1436 646.649 92.5349 648.464 92.5349 650.847C92.5349 653.23 92.1436 655.052 91.361 656.312C90.5924 657.573 89.4604 658.204 87.9651 658.204C86.4838 658.204 85.3518 657.573 84.5692 656.312C83.7866 655.052 83.3953 653.23 83.3953 650.847C83.3953 648.478 83.7866 646.663 84.5692 645.402C85.3518 644.141 86.4838 643.511 87.9651 643.511ZM84.8836 650.847C84.8836 652.537 85.0374 653.86 85.3448 654.816L89.9985 645.61C89.5093 644.958 88.8315 644.633 87.9651 644.633C87.0008 644.633 86.2462 645.145 85.7012 646.171C85.1561 647.182 84.8836 648.741 84.8836 650.847ZM87.9651 657.061C88.9433 657.061 89.705 656.555 90.25 655.543C90.795 654.518 91.0675 652.953 91.0675 650.847C91.0675 649.059 90.8928 647.674 90.5435 646.69L85.8898 655.98C86.3929 656.7 87.0847 657.061 87.9651 657.061Z" fill="url(#paint21_linear_122_130)" fill-opacity="0.6"/>
<path d="M89.2228 680.645H92.3043V681.747H84.3176V680.645H87.8812V668.966L84.4853 670.982L83.8984 670.046L88.0909 667.469H89.2228V680.645Z" fill="url(#paint22_linear_122_130)" fill-opacity="0.6"/>
<path d="M87.9651 691.013C89.4604 691.013 90.5924 691.643 91.361 692.904C92.1436 694.151 92.5349 695.966 92.5349 698.349C92.5349 700.732 92.1436 702.554 91.361 703.815C90.5924 705.075 89.4604 705.706 87.9651 705.706C86.4838 705.706 85.3518 705.075 84.5692 703.815C83.7866 702.554 83.3953 700.732 83.3953 698.349C83.3953 695.98 83.7866 694.165 84.5692 692.904C85.3518 691.643 86.4838 691.013 87.9651 691.013ZM84.8836 698.349C84.8836 700.039 85.0374 701.362 85.3448 702.318L89.9985 693.112C89.5093 692.461 88.8315 692.135 87.9651 692.135C87.0008 692.135 86.2462 692.648 85.7012 693.673C85.1561 694.684 84.8836 696.243 84.8836 698.349ZM87.9651 704.563C88.9433 704.563 89.705 704.057 90.25 703.046C90.795 702.02 91.0675 700.455 91.0675 698.349C91.0675 696.562 90.8928 695.176 90.5435 694.192L85.8898 703.482C86.3929 704.202 87.0847 704.563 87.9651 704.563Z" fill="url(#paint23_linear_122_130)" fill-opacity="0.6"/>
<path d="M89.2228 728.148H92.3043V729.249H84.3176V728.148H87.8812V716.468L84.4853 718.484L83.8984 717.549L88.0909 714.972H89.2228V728.148Z" fill="url(#paint24_linear_122_130)" fill-opacity="0.6"/>
<path d="M89.2228 751.899H92.3043V753H84.3176V751.899H87.8812V740.219L84.4853 742.235L83.8984 741.3L88.0909 738.723H89.2228V751.899Z" fill="url(#paint25_linear_122_130)" fill-opacity="0.6"/>
<path d="M29.5698 477.253C31.0651 477.253 32.1971 477.884 32.9657 479.144C33.7483 480.391 34.1396 482.206 34.1396 484.589C34.1396 486.972 33.7483 488.794 32.9657 490.055C32.1971 491.316 31.0651 491.946 29.5698 491.946C28.0885 491.946 26.9565 491.316 26.1739 490.055C25.3913 488.794 25 486.972 25 484.589C25 482.22 25.3913 480.405 26.1739 479.144C26.9565 477.884 28.0885 477.253 29.5698 477.253ZM26.4883 484.589C26.4883 486.28 26.6421 487.603 26.9495 488.559L31.6032 479.352C31.114 478.701 30.4363 478.375 29.5698 478.375C28.6055 478.375 27.8509 478.888 27.3059 479.913C26.7608 480.925 26.4883 482.483 26.4883 484.589ZM29.5698 490.803C30.5481 490.803 31.3097 490.297 31.8547 489.286C32.3997 488.261 32.6722 486.695 32.6722 484.589C32.6722 482.802 32.4976 481.417 32.1482 480.433L27.4945 489.722C27.9976 490.443 28.6894 490.803 29.5698 490.803Z" fill="url(#paint26_linear_122_130)" fill-opacity="0.6"/>
<path d="M29.5698 501.004C31.0651 501.004 32.1971 501.635 32.9657 502.895C33.7483 504.142 34.1396 505.957 34.1396 508.34C34.1396 510.723 33.7483 512.545 32.9657 513.806C32.1971 515.067 31.0651 515.697 29.5698 515.697C28.0885 515.697 26.9565 515.067 26.1739 513.806C25.3913 512.545 25 510.723 25 508.34C25 505.971 25.3913 504.156 26.1739 502.895C26.9565 501.635 28.0885 501.004 29.5698 501.004ZM26.4883 508.34C26.4883 510.031 26.6421 511.354 26.9495 512.31L31.6032 503.103C31.114 502.452 30.4363 502.126 29.5698 502.126C28.6055 502.126 27.8509 502.639 27.3059 503.664C26.7608 504.676 26.4883 506.234 26.4883 508.34ZM29.5698 514.554C30.5481 514.554 31.3097 514.049 31.8547 513.037C32.3997 512.012 32.6722 510.446 32.6722 508.34C32.6722 506.553 32.4976 505.168 32.1482 504.184L27.4945 513.474C27.9976 514.194 28.6894 514.554 29.5698 514.554Z" fill="url(#paint27_linear_122_130)" fill-opacity="0.6"/>
<path d="M30.8276 538.139H33.909V539.24H25.9223V538.139H29.486V526.459L26.09 528.475L25.5031 527.54L29.6956 524.963H30.8276V538.139Z" fill="url(#paint28_linear_122_130)" fill-opacity="0.6"/>
<path d="M29.5698 548.506C31.0651 548.506 32.1971 549.137 32.9657 550.398C33.7483 551.644 34.1396 553.459 34.1396 555.842C34.1396 558.225 33.7483 560.047 32.9657 561.308C32.1971 562.569 31.0651 563.199 29.5698 563.199C28.0885 563.199 26.9565 562.569 26.1739 561.308C25.3913 560.047 25 558.225 25 555.842C25 553.473 25.3913 551.658 26.1739 550.398C26.9565 549.137 28.0885 548.506 29.5698 548.506ZM26.4883 555.842C26.4883 557.533 26.6421 558.856 26.9495 559.812L31.6032 550.605C31.114 549.954 30.4363 549.629 29.5698 549.629C28.6055 549.629 27.8509 550.141 27.3059 551.166C26.7608 552.178 26.4883 553.737 26.4883 555.842ZM29.5698 562.056C30.5481 562.056 31.3097 561.551 31.8547 560.539C32.3997 559.514 32.6722 557.948 32.6722 555.842C32.6722 554.055 32.4976 552.67 32.1482 551.686L27.4945 560.976C27.9976 561.696 28.6894 562.056 29.5698 562.056Z" fill="url(#paint29_linear_122_130)" fill-opacity="0.6"/>
<path d="M30.8276 585.641H33.909V586.743H25.9223V585.641H29.486V573.962L26.09 575.977L25.5031 575.042L29.6956 572.465H30.8276V585.641Z" fill="url(#paint30_linear_122_130)" fill-opacity="0.6"/>
<path d="M30.8276 609.392H33.909V610.494H25.9223V609.392H29.486V597.713L26.09 599.728L25.5031 598.793L29.6956 596.216H30.8276V609.392Z" fill="url(#paint31_linear_122_130)" fill-opacity="0.6"/>
<path d="M69.7577 443.135H72.8392V444.236H64.8525V443.135H68.4162V431.455L65.0202 433.471L64.4333 432.536L68.6258 429.959H69.7577V443.135Z" fill="url(#paint32_linear_122_130)" fill-opacity="0.6"/>
<path d="M68.5 453.502C69.9953 453.502 71.1273 454.133 71.8959 455.393C72.6785 456.64 73.0698 458.455 73.0698 460.838C73.0698 463.221 72.6785 465.043 71.8959 466.304C71.1273 467.565 69.9953 468.195 68.5 468.195C67.0187 468.195 65.8867 467.565 65.1041 466.304C64.3215 465.043 63.9302 463.221 63.9302 460.838C63.9302 458.469 64.3215 456.654 65.1041 455.393C65.8867 454.133 67.0187 453.502 68.5 453.502ZM65.4185 460.838C65.4185 462.529 65.5723 463.852 65.8797 464.808L70.5334 455.601C70.0442 454.95 69.3664 454.624 68.5 454.624C67.5357 454.624 66.7811 455.137 66.2361 456.162C65.691 457.174 65.4185 458.732 65.4185 460.838ZM68.5 467.052C69.4782 467.052 70.2399 466.546 70.7849 465.535C71.3299 464.51 71.6024 462.944 71.6024 460.838C71.6024 459.051 71.4277 457.665 71.0784 456.682L66.4247 465.971C66.9278 466.692 67.6196 467.052 68.5 467.052Z" fill="url(#paint33_linear_122_130)" fill-opacity="0.6"/>
<path d="M69.7577 490.637H72.8392V491.738H64.8525V490.637H68.4162V478.957L65.0202 480.973L64.4333 480.038L68.6258 477.461H69.7577V490.637Z" fill="url(#paint34_linear_122_130)" fill-opacity="0.6"/>
<path d="M69.7577 514.388H72.8392V515.489H64.8525V514.388H68.4162V502.708L65.0202 504.724L64.4333 503.789L68.6258 501.212H69.7577V514.388Z" fill="url(#paint35_linear_122_130)" fill-opacity="0.6"/>
<path d="M68.5 524.755C69.9953 524.755 71.1273 525.386 71.8959 526.646C72.6785 527.893 73.0698 529.708 73.0698 532.091C73.0698 534.474 72.6785 536.296 71.8959 537.557C71.1273 538.818 69.9953 539.448 68.5 539.448C67.0187 539.448 65.8867 538.818 65.1041 537.557C64.3215 536.296 63.9302 534.474 63.9302 532.091C63.9302 529.722 64.3215 527.907 65.1041 526.646C65.8867 525.386 67.0187 524.755 68.5 524.755ZM65.4185 532.091C65.4185 533.782 65.5723 535.105 65.8797 536.061L70.5334 526.854C70.0442 526.203 69.3664 525.878 68.5 525.878C67.5357 525.878 66.7811 526.39 66.2361 527.415C65.691 528.427 65.4185 529.985 65.4185 532.091ZM68.5 538.305C69.4782 538.305 70.2399 537.8 70.7849 536.788C71.3299 535.763 71.6024 534.197 71.6024 532.091C71.6024 530.304 71.4277 528.919 71.0784 527.935L66.4247 537.225C66.9278 537.945 67.6196 538.305 68.5 538.305Z" fill="url(#paint36_linear_122_130)" fill-opacity="0.6"/>
<path d="M69.7577 561.89H72.8392V562.992H64.8525V561.89H68.4162V550.21L65.0202 552.226L64.4333 551.291L68.6258 548.714H69.7577V561.89Z" fill="url(#paint37_linear_122_130)" fill-opacity="0.6"/>
<path d="M69.7577 585.641H72.8392V586.743H64.8525V585.641H68.4162V573.962L65.0202 575.977L64.4333 575.042L68.6258 572.465H69.7577V585.641Z" fill="url(#paint38_linear_122_130)" fill-opacity="0.6"/>
<path d="M68.5 596.008C69.9953 596.008 71.1273 596.639 71.8959 597.9C72.6785 599.147 73.0698 600.962 73.0698 603.345C73.0698 605.728 72.6785 607.549 71.8959 608.81C71.1273 610.071 69.9953 610.701 68.5 610.701C67.0187 610.701 65.8867 610.071 65.1041 608.81C64.3215 607.549 63.9302 605.728 63.9302 603.345C63.9302 600.975 64.3215 599.16 65.1041 597.9C65.8867 596.639 67.0187 596.008 68.5 596.008ZM65.4185 603.345C65.4185 605.035 65.5723 606.358 65.8797 607.314L70.5334 598.107C70.0442 597.456 69.3664 597.131 68.5 597.131C67.5357 597.131 66.7811 597.643 66.2361 598.669C65.691 599.68 65.4185 601.239 65.4185 603.345ZM68.5 609.558C69.4782 609.558 70.2399 609.053 70.7849 608.041C71.3299 607.016 71.6024 605.451 71.6024 603.345C71.6024 601.557 71.4277 600.172 71.0784 599.188L66.4247 608.478C66.9278 609.198 67.6196 609.558 68.5 609.558Z" fill="url(#paint39_linear_122_130)" fill-opacity="0.6"/>
<path d="M69.7577 633.143H72.8392V634.245H64.8525V633.143H68.4162V621.464L65.0202 623.48L64.4333 622.544L68.6258 619.967H69.7577V633.143Z" fill="url(#paint40_linear_122_130)" fill-opacity="0.6"/>
<path d="M68.5 643.511C69.9953 643.511 71.1273 644.141 71.8959 645.402C72.6785 646.649 73.0698 648.464 73.0698 650.847C73.0698 653.23 72.6785 655.052 71.8959 656.312C71.1273 657.573 69.9953 658.204 68.5 658.204C67.0187 658.204 65.8867 657.573 65.1041 656.312C64.3215 655.052 63.9302 653.23 63.9302 650.847C63.9302 648.478 64.3215 646.663 65.1041 645.402C65.8867 644.141 67.0187 643.511 68.5 643.511ZM65.4185 650.847C65.4185 652.537 65.5723 653.86 65.8797 654.816L70.5334 645.61C70.0442 644.958 69.3664 644.633 68.5 644.633C67.5357 644.633 66.7811 645.145 66.2361 646.171C65.691 647.182 65.4185 648.741 65.4185 650.847ZM68.5 657.061C69.4782 657.061 70.2399 656.555 70.7849 655.543C71.3299 654.518 71.6024 652.953 71.6024 650.847C71.6024 649.059 71.4277 647.674 71.0784 646.69L66.4247 655.98C66.9278 656.7 67.6196 657.061 68.5 657.061Z" fill="url(#paint41_linear_122_130)" fill-opacity="0.6"/>
<path d="M107.43 429.751C108.926 429.751 110.057 430.381 110.826 431.642C111.609 432.889 112 434.704 112 437.087C112 439.47 111.609 441.292 110.826 442.553C110.057 443.814 108.926 444.444 107.43 444.444C105.949 444.444 104.817 443.814 104.034 442.553C103.252 441.292 102.86 439.47 102.86 437.087C102.86 434.718 103.252 432.903 104.034 431.642C104.817 430.381 105.949 429.751 107.43 429.751ZM104.349 437.087C104.349 438.777 104.502 440.101 104.81 441.057L109.464 431.85C108.974 431.199 108.297 430.873 107.43 430.873C106.466 430.873 105.711 431.386 105.166 432.411C104.621 433.423 104.349 434.981 104.349 437.087ZM107.43 443.301C108.408 443.301 109.17 442.795 109.715 441.784C110.26 440.759 110.533 439.193 110.533 437.087C110.533 435.3 110.358 433.914 110.009 432.931L105.355 442.22C105.858 442.941 106.55 443.301 107.43 443.301Z" fill="url(#paint42_linear_122_130)" fill-opacity="0.6"/>
<path d="M108.688 466.886H111.769V467.987H103.783V466.886H107.346V455.206L103.95 457.222L103.363 456.287L107.556 453.71H108.688V466.886Z" fill="url(#paint43_linear_122_130)" fill-opacity="0.6"/>
<path d="M108.688 490.637H111.769V491.738H103.783V490.637H107.346V478.957L103.95 480.973L103.363 480.038L107.556 477.461H108.688V490.637Z" fill="url(#paint44_linear_122_130)" fill-opacity="0.6"/>
<path d="M107.43 501.004C108.926 501.004 110.057 501.635 110.826 502.895C111.609 504.142 112 505.957 112 508.34C112 510.723 111.609 512.545 110.826 513.806C110.057 515.067 108.926 515.697 107.43 515.697C105.949 515.697 104.817 515.067 104.034 513.806C103.252 512.545 102.86 510.723 102.86 508.34C102.86 505.971 103.252 504.156 104.034 502.895C104.817 501.635 105.949 501.004 107.43 501.004ZM104.349 508.34C104.349 510.031 104.502 511.354 104.81 512.31L109.464 503.103C108.974 502.452 108.297 502.126 107.43 502.126C106.466 502.126 105.711 502.639 105.166 503.664C104.621 504.676 104.349 506.234 104.349 508.34ZM107.43 514.554C108.408 514.554 109.17 514.049 109.715 513.037C110.26 512.012 110.533 510.446 110.533 508.34C110.533 506.553 110.358 505.168 110.009 504.184L105.355 513.474C105.858 514.194 106.55 514.554 107.43 514.554Z" fill="url(#paint45_linear_122_130)" fill-opacity="0.6"/>
<path d="M107.43 524.755C108.926 524.755 110.057 525.386 110.826 526.646C111.609 527.893 112 529.708 112 532.091C112 534.474 111.609 536.296 110.826 537.557C110.057 538.818 108.926 539.448 107.43 539.448C105.949 539.448 104.817 538.818 104.034 537.557C103.252 536.296 102.86 534.474 102.86 532.091C102.86 529.722 103.252 527.907 104.034 526.646C104.817 525.386 105.949 524.755 107.43 524.755ZM104.349 532.091C104.349 533.782 104.502 535.105 104.81 536.061L109.464 526.854C108.974 526.203 108.297 525.878 107.43 525.878C106.466 525.878 105.711 526.39 105.166 527.415C104.621 528.427 104.349 529.985 104.349 532.091ZM107.43 538.305C108.408 538.305 109.17 537.8 109.715 536.788C110.26 535.763 110.533 534.197 110.533 532.091C110.533 530.304 110.358 528.919 110.009 527.935L105.355 537.225C105.858 537.945 106.55 538.305 107.43 538.305Z" fill="url(#paint46_linear_122_130)" fill-opacity="0.6"/>
<g opacity="0.6">
<path d="M935.93 106C937.356 106 938.436 106.605 939.17 107.815C939.916 109.011 940.29 110.753 940.29 113.04C940.29 115.327 939.916 117.075 939.17 118.285C938.436 119.495 937.356 120.1 935.93 120.1C934.517 120.1 933.437 119.495 932.69 118.285C931.943 117.075 931.57 115.327 931.57 113.04C931.57 110.767 931.943 109.025 932.69 107.815C933.437 106.605 934.517 106 935.93 106ZM932.99 113.04C932.99 114.662 933.137 115.932 933.43 116.849L937.87 108.014C937.403 107.389 936.756 107.077 935.93 107.077C935.01 107.077 934.29 107.569 933.77 108.553C933.25 109.523 932.99 111.019 932.99 113.04ZM935.93 119.003C936.863 119.003 937.59 118.518 938.11 117.547C938.63 116.564 938.89 115.061 938.89 113.04C938.89 111.325 938.723 109.995 938.39 109.051L933.95 117.966C934.43 118.658 935.09 119.003 935.93 119.003Z" fill="url(#paint47_linear_122_130)"/>
<path d="M937.13 141.637H940.07V142.694H932.45V141.637H935.85V130.428L932.61 132.363L932.05 131.465L936.05 128.992H937.13V141.637Z" fill="url(#paint48_linear_122_130)"/>
<path d="M935.93 151.586C937.356 151.586 938.436 152.191 939.17 153.4C939.916 154.597 940.29 156.339 940.29 158.626C940.29 160.913 939.916 162.661 939.17 163.871C938.436 165.081 937.356 165.686 935.93 165.686C934.517 165.686 933.437 165.081 932.69 163.871C931.943 162.661 931.57 160.913 931.57 158.626C931.57 156.352 931.943 154.61 932.69 153.4C933.437 152.191 934.517 151.586 935.93 151.586ZM932.99 158.626C932.99 160.248 933.137 161.518 933.43 162.435L937.87 153.6C937.403 152.975 936.756 152.663 935.93 152.663C935.01 152.663 934.29 153.155 933.77 154.138C933.25 155.109 932.99 156.605 932.99 158.626ZM935.93 164.589C936.863 164.589 937.59 164.104 938.11 163.133C938.63 162.149 938.89 160.647 938.89 158.626C938.89 156.911 938.723 155.581 938.39 154.637L933.95 163.552C934.43 164.243 935.09 164.589 935.93 164.589Z" fill="url(#paint49_linear_122_130)"/>
<path d="M937.13 187.222H940.07V188.279H932.45V187.222H935.85V176.014L932.61 177.948L932.05 177.051L936.05 174.578H937.13V187.222Z" fill="url(#paint50_linear_122_130)"/>
<path d="M937.13 210.015H940.07V211.072H932.45V210.015H935.85V198.807L932.61 200.741L932.05 199.844L936.05 197.371H937.13V210.015Z" fill="url(#paint51_linear_122_130)"/>
<path d="M935.93 219.964C937.356 219.964 938.436 220.569 939.17 221.779C939.916 222.976 940.29 224.717 940.29 227.004C940.29 229.291 939.916 231.039 939.17 232.249C938.436 233.459 937.356 234.064 935.93 234.064C934.517 234.064 933.437 233.459 932.69 232.249C931.943 231.039 931.57 229.291 931.57 227.004C931.57 224.731 931.943 222.989 932.69 221.779C933.437 220.569 934.517 219.964 935.93 219.964ZM932.99 227.004C932.99 228.626 933.137 229.896 933.43 230.813L937.87 221.978C937.403 221.353 936.756 221.041 935.93 221.041C935.01 221.041 934.29 221.533 933.77 222.517C933.25 223.487 932.99 224.983 932.99 227.004ZM935.93 232.967C936.863 232.967 937.59 232.482 938.11 231.511C938.63 230.528 938.89 229.025 938.89 227.004C938.89 225.289 938.723 223.959 938.39 223.015L933.95 231.93C934.43 232.622 935.09 232.967 935.93 232.967Z" fill="url(#paint52_linear_122_130)"/>
<path d="M937.13 255.601H940.07V256.658H932.45V255.601H935.85V244.392L932.61 246.327L932.05 245.429L936.05 242.956H937.13V255.601Z" fill="url(#paint53_linear_122_130)"/>
<path d="M935.93 265.55C937.356 265.55 938.436 266.155 939.17 267.365C939.916 268.561 940.29 270.303 940.29 272.59C940.29 274.877 939.916 276.625 939.17 277.835C938.436 279.045 937.356 279.65 935.93 279.65C934.517 279.65 933.437 279.045 932.69 277.835C931.943 276.625 931.57 274.877 931.57 272.59C931.57 270.316 931.943 268.574 932.69 267.365C933.437 266.155 934.517 265.55 935.93 265.55ZM932.99 272.59C932.99 274.212 933.137 275.482 933.43 276.399L937.87 267.564C937.403 266.939 936.756 266.627 935.93 266.627C935.01 266.627 934.29 267.119 933.77 268.102C933.25 269.073 932.99 270.569 932.99 272.59ZM935.93 278.553C936.863 278.553 937.59 278.068 938.11 277.097C938.63 276.113 938.89 274.611 938.89 272.59C938.89 270.875 938.723 269.545 938.39 268.601L933.95 277.516C934.43 278.207 935.09 278.553 935.93 278.553Z" fill="url(#paint54_linear_122_130)"/>
<path d="M935.93 288.342C937.356 288.342 938.436 288.947 939.17 290.157C939.916 291.354 940.29 293.096 940.29 295.383C940.29 297.669 939.916 299.418 939.17 300.628C938.436 301.838 937.356 302.443 935.93 302.443C934.517 302.443 933.437 301.838 932.69 300.628C931.943 299.418 931.57 297.669 931.57 295.383C931.57 293.109 931.943 291.367 932.69 290.157C933.437 288.947 934.517 288.342 935.93 288.342ZM932.99 295.383C932.99 297.005 933.137 298.274 933.43 299.192L937.87 290.357C937.403 289.732 936.756 289.419 935.93 289.419C935.01 289.419 934.29 289.911 933.77 290.895C933.25 291.866 932.99 293.362 932.99 295.383ZM935.93 301.346C936.863 301.346 937.59 300.86 938.11 299.89C938.63 298.906 938.89 297.404 938.89 295.383C938.89 293.667 938.723 292.338 938.39 291.394L933.95 300.309C934.43 301 935.09 301.346 935.93 301.346Z" fill="url(#paint55_linear_122_130)"/>
<path d="M937.13 323.979H940.07V325.036H932.45V323.979H935.85V312.771L932.61 314.705L932.05 313.808L936.05 311.335H937.13V323.979Z" fill="url(#paint56_linear_122_130)"/>
<path d="M935.93 333.928C937.356 333.928 938.436 334.533 939.17 335.743C939.916 336.94 940.29 338.681 940.29 340.968C940.29 343.255 939.916 345.003 939.17 346.213C938.436 347.423 937.356 348.028 935.93 348.028C934.517 348.028 933.437 347.423 932.69 346.213C931.943 345.003 931.57 343.255 931.57 340.968C931.57 338.695 931.943 336.953 932.69 335.743C933.437 334.533 934.517 333.928 935.93 333.928ZM932.99 340.968C932.99 342.59 933.137 343.86 933.43 344.777L937.87 335.942C937.403 335.317 936.756 335.005 935.93 335.005C935.01 335.005 934.29 335.497 933.77 336.481C933.25 337.451 932.99 338.947 932.99 340.968ZM935.93 346.931C936.863 346.931 937.59 346.446 938.11 345.475C938.63 344.492 938.89 342.989 938.89 340.968C938.89 339.253 938.723 337.923 938.39 336.979L933.95 345.894C934.43 346.586 935.09 346.931 935.93 346.931Z" fill="url(#paint57_linear_122_130)"/>
<path d="M937.13 369.565H940.07V370.622H932.45V369.565H935.85V358.356L932.61 360.291L932.05 359.393L936.05 356.92H937.13V369.565Z" fill="url(#paint58_linear_122_130)"/>
<path d="M937.13 392.357H940.07V393.414H932.45V392.357H935.85V381.149L932.61 383.084L932.05 382.186L936.05 379.713H937.13V392.357Z" fill="url(#paint59_linear_122_130)"/>
<path d="M973.07 151.586C974.497 151.586 975.577 152.191 976.31 153.4C977.057 154.597 977.43 156.339 977.43 158.626C977.43 160.913 977.057 162.661 976.31 163.871C975.577 165.081 974.497 165.686 973.07 165.686C971.657 165.686 970.577 165.081 969.83 163.871C969.084 162.661 968.71 160.913 968.71 158.626C968.71 156.352 969.084 154.61 969.83 153.4C970.577 152.191 971.657 151.586 973.07 151.586ZM970.13 158.626C970.13 160.248 970.277 161.518 970.57 162.435L975.01 153.6C974.543 152.975 973.897 152.663 973.07 152.663C972.15 152.663 971.43 153.155 970.91 154.138C970.39 155.109 970.13 156.605 970.13 158.626ZM973.07 164.589C974.003 164.589 974.73 164.104 975.25 163.133C975.77 162.149 976.03 160.647 976.03 158.626C976.03 156.911 975.863 155.581 975.53 154.637L971.09 163.552C971.57 164.243 972.23 164.589 973.07 164.589Z" fill="url(#paint60_linear_122_130)"/>
<path d="M974.27 187.222H977.21V188.279H969.59V187.222H972.99V176.014L969.75 177.948L969.19 177.051L973.19 174.578H974.27V187.222Z" fill="url(#paint61_linear_122_130)"/>
<path d="M973.07 197.171C974.497 197.171 975.577 197.776 976.31 198.986C977.057 200.183 977.43 201.924 977.43 204.211C977.43 206.498 977.057 208.247 976.31 209.457C975.577 210.666 974.497 211.271 973.07 211.271C971.657 211.271 970.577 210.666 969.83 209.457C969.084 208.247 968.71 206.498 968.71 204.211C968.71 201.938 969.084 200.196 969.83 198.986C970.577 197.776 971.657 197.171 973.07 197.171ZM970.13 204.211C970.13 205.833 970.277 207.103 970.57 208.021L975.01 199.186C974.543 198.561 973.897 198.248 973.07 198.248C972.15 198.248 971.43 198.74 970.91 199.724C970.39 200.695 970.13 202.19 970.13 204.211ZM973.07 210.174C974.003 210.174 974.73 209.689 975.25 208.719C975.77 207.735 976.03 206.232 976.03 204.211C976.03 202.496 975.863 201.167 975.53 200.223L971.09 209.137C971.57 209.829 972.23 210.174 973.07 210.174Z" fill="url(#paint62_linear_122_130)"/>
<path d="M973.07 219.964C974.497 219.964 975.577 220.569 976.31 221.779C977.057 222.976 977.43 224.717 977.43 227.004C977.43 229.291 977.057 231.039 976.31 232.249C975.577 233.459 974.497 234.064 973.07 234.064C971.657 234.064 970.577 233.459 969.83 232.249C969.084 231.039 968.71 229.291 968.71 227.004C968.71 224.731 969.084 222.989 969.83 221.779C970.577 220.569 971.657 219.964 973.07 219.964ZM970.13 227.004C970.13 228.626 970.277 229.896 970.57 230.813L975.01 221.978C974.543 221.353 973.897 221.041 973.07 221.041C972.15 221.041 971.43 221.533 970.91 222.517C970.39 223.487 970.13 224.983 970.13 227.004ZM973.07 232.967C974.003 232.967 974.73 232.482 975.25 231.511C975.77 230.528 976.03 229.025 976.03 227.004C976.03 225.289 975.863 223.959 975.53 223.015L971.09 231.93C971.57 232.622 972.23 232.967 973.07 232.967Z" fill="url(#paint63_linear_122_130)"/>
<path d="M974.27 255.601H977.21V256.658H969.59V255.601H972.99V244.392L969.75 246.327L969.19 245.429L973.19 242.956H974.27V255.601Z" fill="url(#paint64_linear_122_130)"/>
<path d="M973.07 265.55C974.497 265.55 975.577 266.155 976.31 267.365C977.057 268.561 977.43 270.303 977.43 272.59C977.43 274.877 977.057 276.625 976.31 277.835C975.577 279.045 974.497 279.65 973.07 279.65C971.657 279.65 970.577 279.045 969.83 277.835C969.084 276.625 968.71 274.877 968.71 272.59C968.71 270.316 969.084 268.574 969.83 267.365C970.577 266.155 971.657 265.55 973.07 265.55ZM970.13 272.59C970.13 274.212 970.277 275.482 970.57 276.399L975.01 267.564C974.543 266.939 973.897 266.627 973.07 266.627C972.15 266.627 971.43 267.119 970.91 268.102C970.39 269.073 970.13 270.569 970.13 272.59ZM973.07 278.553C974.003 278.553 974.73 278.068 975.25 277.097C975.77 276.113 976.03 274.611 976.03 272.59C976.03 270.875 975.863 269.545 975.53 268.601L971.09 277.516C971.57 278.207 972.23 278.553 973.07 278.553Z" fill="url(#paint65_linear_122_130)"/>
<path d="M974.27 301.186H977.21V302.243H969.59V301.186H972.99V289.978L969.75 291.912L969.19 291.015L973.19 288.542H974.27V301.186Z" fill="url(#paint66_linear_122_130)"/>
<path d="M973.07 311.135C974.497 311.135 975.577 311.74 976.31 312.95C977.057 314.147 977.43 315.888 977.43 318.175C977.43 320.462 977.057 322.211 976.31 323.421C975.577 324.63 974.497 325.235 973.07 325.235C971.657 325.235 970.577 324.63 969.83 323.421C969.084 322.211 968.71 320.462 968.71 318.175C968.71 315.902 969.084 314.16 969.83 312.95C970.577 311.74 971.657 311.135 973.07 311.135ZM970.13 318.175C970.13 319.797 970.277 321.067 970.57 321.985L975.01 313.15C974.543 312.525 973.897 312.212 973.07 312.212C972.15 312.212 971.43 312.704 970.91 313.688C970.39 314.659 970.13 316.154 970.13 318.175ZM973.07 324.139C974.003 324.139 974.73 323.653 975.25 322.683C975.77 321.699 976.03 320.196 976.03 318.175C976.03 316.46 975.863 315.131 975.53 314.187L971.09 323.101C971.57 323.793 972.23 324.139 973.07 324.139Z" fill="url(#paint67_linear_122_130)"/>
<path d="M973.07 333.928C974.497 333.928 975.577 334.533 976.31 335.743C977.057 336.94 977.43 338.681 977.43 340.968C977.43 343.255 977.057 345.003 976.31 346.213C975.577 347.423 974.497 348.028 973.07 348.028C971.657 348.028 970.577 347.423 969.83 346.213C969.084 345.003 968.71 343.255 968.71 340.968C968.71 338.695 969.084 336.953 969.83 335.743C970.577 334.533 971.657 333.928 973.07 333.928ZM970.13 340.968C970.13 342.59 970.277 343.86 970.57 344.777L975.01 335.942C974.543 335.317 973.897 335.005 973.07 335.005C972.15 335.005 971.43 335.497 970.91 336.481C970.39 337.451 970.13 338.947 970.13 340.968ZM973.07 346.931C974.003 346.931 974.73 346.446 975.25 345.475C975.77 344.492 976.03 342.989 976.03 340.968C976.03 339.253 975.863 337.923 975.53 336.979L971.09 345.894C971.57 346.586 972.23 346.931 973.07 346.931Z" fill="url(#paint68_linear_122_130)"/>
<path d="M974.27 369.565H977.21V370.622H969.59V369.565H972.99V358.356L969.75 360.291L969.19 359.393L973.19 356.92H974.27V369.565Z" fill="url(#paint69_linear_122_130)"/>
<path d="M973.07 379.514C974.497 379.514 975.577 380.119 976.31 381.329C977.057 382.525 977.43 384.267 977.43 386.554C977.43 388.841 977.057 390.589 976.31 391.799C975.577 393.009 974.497 393.614 973.07 393.614C971.657 393.614 970.577 393.009 969.83 391.799C969.084 390.589 968.71 388.841 968.71 386.554C968.71 384.28 969.084 382.538 969.83 381.329C970.577 380.119 971.657 379.514 973.07 379.514ZM970.13 386.554C970.13 388.176 970.277 389.446 970.57 390.363L975.01 381.528C974.543 380.903 973.897 380.591 973.07 380.591C972.15 380.591 971.43 381.083 970.91 382.066C970.39 383.037 970.13 384.533 970.13 386.554ZM973.07 392.517C974.003 392.517 974.73 392.032 975.25 391.061C975.77 390.077 976.03 388.575 976.03 386.554C976.03 384.839 975.863 383.509 975.53 382.565L971.09 391.48C971.57 392.171 972.23 392.517 973.07 392.517Z" fill="url(#paint70_linear_122_130)"/>
<path d="M974.27 415.15H977.21V416.207H969.59V415.15H972.99V403.942L969.75 405.876L969.19 404.979L973.19 402.506H974.27V415.15Z" fill="url(#paint71_linear_122_130)"/>
<path d="M974.27 437.943H977.21V439H969.59V437.943H972.99V426.735L969.75 428.669L969.19 427.772L973.19 425.299H974.27V437.943Z" fill="url(#paint72_linear_122_130)"/>
<path d="M917.36 174.378C918.786 174.378 919.866 174.983 920.599 176.193C921.346 177.39 921.719 179.132 921.719 181.419C921.719 183.705 921.346 185.454 920.599 186.664C919.866 187.874 918.786 188.479 917.36 188.479C915.946 188.479 914.867 187.874 914.12 186.664C913.373 185.454 913 183.705 913 181.419C913 179.145 913.373 177.403 914.12 176.193C914.867 174.983 915.946 174.378 917.36 174.378ZM914.42 181.419C914.42 183.041 914.567 184.31 914.86 185.228L919.3 176.393C918.833 175.768 918.186 175.455 917.36 175.455C916.44 175.455 915.72 175.947 915.2 176.931C914.68 177.902 914.42 179.398 914.42 181.419ZM917.36 187.382C918.293 187.382 919.02 186.896 919.54 185.926C920.06 184.942 920.319 183.44 920.319 181.419C920.319 179.703 920.153 178.374 919.82 177.43L915.38 186.345C915.86 187.036 916.52 187.382 917.36 187.382Z" fill="url(#paint73_linear_122_130)"/>
<path d="M917.36 197.171C918.786 197.171 919.866 197.776 920.599 198.986C921.346 200.183 921.719 201.924 921.719 204.211C921.719 206.498 921.346 208.247 920.599 209.457C919.866 210.666 918.786 211.271 917.36 211.271C915.946 211.271 914.867 210.666 914.12 209.457C913.373 208.247 913 206.498 913 204.211C913 201.938 913.373 200.196 914.12 198.986C914.867 197.776 915.946 197.171 917.36 197.171ZM914.42 204.211C914.42 205.833 914.567 207.103 914.86 208.021L919.3 199.186C918.833 198.561 918.186 198.248 917.36 198.248C916.44 198.248 915.72 198.74 915.2 199.724C914.68 200.695 914.42 202.19 914.42 204.211ZM917.36 210.174C918.293 210.174 919.02 209.689 919.54 208.719C920.06 207.735 920.319 206.232 920.319 204.211C920.319 202.496 920.153 201.167 919.82 200.223L915.38 209.137C915.86 209.829 916.52 210.174 917.36 210.174Z" fill="url(#paint74_linear_122_130)"/>
<path d="M918.56 232.808H921.499V233.865H913.88V232.808H917.28V221.599L914.04 223.534L913.48 222.636L917.48 220.163H918.56V232.808Z" fill="url(#paint75_linear_122_130)"/>
<path d="M917.36 242.757C918.786 242.757 919.866 243.362 920.599 244.572C921.346 245.768 921.719 247.51 921.719 249.797C921.719 252.084 921.346 253.832 920.599 255.042C919.866 256.252 918.786 256.857 917.36 256.857C915.946 256.857 914.867 256.252 914.12 255.042C913.373 253.832 913 252.084 913 249.797C913 247.523 913.373 245.782 914.12 244.572C914.867 243.362 915.946 242.757 917.36 242.757ZM914.42 249.797C914.42 251.419 914.567 252.689 914.86 253.606L919.3 244.771C918.833 244.146 918.186 243.834 917.36 243.834C916.44 243.834 915.72 244.326 915.2 245.31C914.68 246.28 914.42 247.776 914.42 249.797ZM917.36 255.76C918.293 255.76 919.02 255.275 919.54 254.304C920.06 253.32 920.319 251.818 920.319 249.797C920.319 248.082 920.153 246.752 919.82 245.808L915.38 254.723C915.86 255.414 916.52 255.76 917.36 255.76Z" fill="url(#paint76_linear_122_130)"/>
<path d="M918.56 278.393H921.499V279.45H913.88V278.393H917.28V267.185L914.04 269.12L913.48 268.222L917.48 265.749H918.56V278.393Z" fill="url(#paint77_linear_122_130)"/>
<path d="M918.56 301.186H921.499V302.243H913.88V301.186H917.28V289.978L914.04 291.912L913.48 291.015L917.48 288.542H918.56V301.186Z" fill="url(#paint78_linear_122_130)"/>
<path d="M955.7 141.637H958.64V142.694H951.02V141.637H954.42V130.428L951.18 132.363L950.62 131.465L954.62 128.992H955.7V141.637Z" fill="url(#paint79_linear_122_130)"/>
<path d="M954.5 151.586C955.927 151.586 957.006 152.191 957.74 153.4C958.486 154.597 958.86 156.339 958.86 158.626C958.86 160.913 958.486 162.661 957.74 163.871C957.006 165.081 955.927 165.686 954.5 165.686C953.087 165.686 952.007 165.081 951.26 163.871C950.514 162.661 950.14 160.913 950.14 158.626C950.14 156.352 950.514 154.61 951.26 153.4C952.007 152.191 953.087 151.586 954.5 151.586ZM951.56 158.626C951.56 160.248 951.707 161.518 952 162.435L956.44 153.6C955.973 152.975 955.327 152.663 954.5 152.663C953.58 152.663 952.86 153.155 952.34 154.138C951.82 155.109 951.56 156.605 951.56 158.626ZM954.5 164.589C955.433 164.589 956.16 164.104 956.68 163.133C957.2 162.149 957.46 160.647 957.46 158.626C957.46 156.911 957.293 155.581 956.96 154.637L952.52 163.552C953 164.243 953.66 164.589 954.5 164.589Z" fill="url(#paint80_linear_122_130)"/>
<path d="M955.7 187.222H958.64V188.279H951.02V187.222H954.42V176.014L951.18 177.948L950.62 177.051L954.62 174.578H955.7V187.222Z" fill="url(#paint81_linear_122_130)"/>
<path d="M955.7 210.015H958.64V211.072H951.02V210.015H954.42V198.807L951.18 200.741L950.62 199.844L954.62 197.371H955.7V210.015Z" fill="url(#paint82_linear_122_130)"/>
<path d="M954.5 219.964C955.927 219.964 957.006 220.569 957.74 221.779C958.486 222.976 958.86 224.717 958.86 227.004C958.86 229.291 958.486 231.039 957.74 232.249C957.006 233.459 955.927 234.064 954.5 234.064C953.087 234.064 952.007 233.459 951.26 232.249C950.514 231.039 950.14 229.291 950.14 227.004C950.14 224.731 950.514 222.989 951.26 221.779C952.007 220.569 953.087 219.964 954.5 219.964ZM951.56 227.004C951.56 228.626 951.707 229.896 952 230.813L956.44 221.978C955.973 221.353 955.327 221.041 954.5 221.041C953.58 221.041 952.86 221.533 952.34 222.517C951.82 223.487 951.56 224.983 951.56 227.004ZM954.5 232.967C955.433 232.967 956.16 232.482 956.68 231.511C957.2 230.528 957.46 229.025 957.46 227.004C957.46 225.289 957.293 223.959 956.96 223.015L952.52 231.93C953 232.622 953.66 232.967 954.5 232.967Z" fill="url(#paint83_linear_122_130)"/>
<path d="M955.7 255.601H958.64V256.658H951.02V255.601H954.42V244.392L951.18 246.327L950.62 245.429L954.62 242.956H955.7V255.601Z" fill="url(#paint84_linear_122_130)"/>
<path d="M955.7 278.393H958.64V279.45H951.02V278.393H954.42V267.185L951.18 269.12L950.62 268.222L954.62 265.749H955.7V278.393Z" fill="url(#paint85_linear_122_130)"/>
<path d="M954.5 288.342C955.927 288.342 957.006 288.947 957.74 290.157C958.486 291.354 958.86 293.096 958.86 295.383C958.86 297.669 958.486 299.418 957.74 300.628C957.006 301.838 955.927 302.443 954.5 302.443C953.087 302.443 952.007 301.838 951.26 300.628C950.514 299.418 950.14 297.669 950.14 295.383C950.14 293.109 950.514 291.367 951.26 290.157C952.007 288.947 953.087 288.342 954.5 288.342ZM951.56 295.383C951.56 297.005 951.707 298.274 952 299.192L956.44 290.357C955.973 289.732 955.327 289.419 954.5 289.419C953.58 289.419 952.86 289.911 952.34 290.895C951.82 291.866 951.56 293.362 951.56 295.383ZM954.5 301.346C955.433 301.346 956.16 300.86 956.68 299.89C957.2 298.906 957.46 297.404 957.46 295.383C957.46 293.667 957.293 292.338 956.96 291.394L952.52 300.309C953 301 953.66 301.346 954.5 301.346Z" fill="url(#paint86_linear_122_130)"/>
<path d="M955.7 323.979H958.64V325.036H951.02V323.979H954.42V312.771L951.18 314.705L950.62 313.808L954.62 311.335H955.7V323.979Z" fill="url(#paint87_linear_122_130)"/>
<path d="M954.5 333.928C955.927 333.928 957.006 334.533 957.74 335.743C958.486 336.94 958.86 338.681 958.86 340.968C958.86 343.255 958.486 345.003 957.74 346.213C957.006 347.423 955.927 348.028 954.5 348.028C953.087 348.028 952.007 347.423 951.26 346.213C950.514 345.003 950.14 343.255 950.14 340.968C950.14 338.695 950.514 336.953 951.26 335.743C952.007 334.533 953.087 333.928 954.5 333.928ZM951.56 340.968C951.56 342.59 951.707 343.86 952 344.777L956.44 335.942C955.973 335.317 955.327 335.005 954.5 335.005C953.58 335.005 952.86 335.497 952.34 336.481C951.82 337.451 951.56 338.947 951.56 340.968ZM954.5 346.931C955.433 346.931 956.16 346.446 956.68 345.475C957.2 344.492 957.46 342.989 957.46 340.968C957.46 339.253 957.293 337.923 956.96 336.979L952.52 345.894C953 346.586 953.66 346.931 954.5 346.931Z" fill="url(#paint88_linear_122_130)"/>
<path d="M991.64 128.793C993.067 128.793 994.147 129.398 994.88 130.608C995.627 131.804 996 133.546 996 135.833C996 138.12 995.627 139.868 994.88 141.078C994.147 142.288 993.067 142.893 991.64 142.893C990.227 142.893 989.147 142.288 988.401 141.078C987.654 139.868 987.281 138.12 987.281 135.833C987.281 133.559 987.654 131.818 988.401 130.608C989.147 129.398 990.227 128.793 991.64 128.793ZM988.7 135.833C988.7 137.455 988.847 138.725 989.14 139.642L993.58 130.807C993.114 130.182 992.467 129.87 991.64 129.87C990.72 129.87 990 130.362 989.48 131.346C988.96 132.316 988.7 133.812 988.7 135.833ZM991.64 141.796C992.574 141.796 993.3 141.311 993.82 140.34C994.34 139.356 994.6 137.854 994.6 135.833C994.6 134.118 994.433 132.788 994.1 131.844L989.66 140.759C990.14 141.45 990.8 141.796 991.64 141.796Z" fill="url(#paint89_linear_122_130)"/>
<path d="M992.84 164.429H995.78V165.486H988.161V164.429H991.56V153.221L988.321 155.156L987.761 154.258L991.76 151.785H992.84V164.429Z" fill="url(#paint90_linear_122_130)"/>
<path d="M992.84 187.222H995.78V188.279H988.161V187.222H991.56V176.014L988.321 177.948L987.761 177.051L991.76 174.578H992.84V187.222Z" fill="url(#paint91_linear_122_130)"/>
<path d="M991.64 197.171C993.067 197.171 994.147 197.776 994.88 198.986C995.627 200.183 996 201.924 996 204.211C996 206.498 995.627 208.247 994.88 209.457C994.147 210.666 993.067 211.271 991.64 211.271C990.227 211.271 989.147 210.666 988.401 209.457C987.654 208.247 987.281 206.498 987.281 204.211C987.281 201.938 987.654 200.196 988.401 198.986C989.147 197.776 990.227 197.171 991.64 197.171ZM988.7 204.211C988.7 205.833 988.847 207.103 989.14 208.021L993.58 199.186C993.114 198.561 992.467 198.248 991.64 198.248C990.72 198.248 990 198.74 989.48 199.724C988.96 200.695 988.7 202.19 988.7 204.211ZM991.64 210.174C992.574 210.174 993.3 209.689 993.82 208.719C994.34 207.735 994.6 206.232 994.6 204.211C994.6 202.496 994.433 201.167 994.1 200.223L989.66 209.137C990.14 209.829 990.8 210.174 991.64 210.174Z" fill="url(#paint92_linear_122_130)"/>
<path d="M991.64 219.964C993.067 219.964 994.147 220.569 994.88 221.779C995.627 222.976 996 224.717 996 227.004C996 229.291 995.627 231.039 994.88 232.249C994.147 233.459 993.067 234.064 991.64 234.064C990.227 234.064 989.147 233.459 988.401 232.249C987.654 231.039 987.281 229.291 987.281 227.004C987.281 224.731 987.654 222.989 988.401 221.779C989.147 220.569 990.227 219.964 991.64 219.964ZM988.7 227.004C988.7 228.626 988.847 229.896 989.14 230.813L993.58 221.978C993.114 221.353 992.467 221.041 991.64 221.041C990.72 221.041 990 221.533 989.48 222.517C988.96 223.487 988.7 224.983 988.7 227.004ZM991.64 232.967C992.574 232.967 993.3 232.482 993.82 231.511C994.34 230.528 994.6 229.025 994.6 227.004C994.6 225.289 994.433 223.959 994.1 223.015L989.66 231.93C990.14 232.622 990.8 232.967 991.64 232.967Z" fill="url(#paint93_linear_122_130)"/>
</g>
</g>
</g>
<defs>
<filter id="filter0_f_122_130" x="-542.19" y="-580.19" width="2141.38" height="1500.38" filterUnits="userSpaceOnUse" color-interpolation-filters="sRGB">
<feFlood flood-opacity="0" result="BackgroundImageFix"/>
<feBlend mode="normal" in="SourceGraphic" in2="BackgroundImageFix" result="shape"/>
<feGaussianBlur stdDeviation="200.095" result="effect1_foregroundBlur_122_130"/>
</filter>
<linearGradient id="paint0_linear_122_130" x1="68.5" y1="406" x2="68.5" y2="717.381" gradientUnits="userSpaceOnUse">
<stop stop-color="#F7DD43"/>
<stop offset="1" stop-color="#F7DD43" stop-opacity="0"/>
</linearGradient>
<linearGradient id="paint1_linear_122_130" x1="68.5" y1="406" x2="68.5" y2="717.381" gradientUnits="userSpaceOnUse">
<stop stop-color="#F7DD43"/>
<stop offset="1" stop-color="#F7DD43" stop-opacity="0"/>
</linearGradient>
<linearGradient id="paint2_linear_122_130" x1="68.5" y1="406" x2="68.5" y2="717.381" gradientUnits="userSpaceOnUse">
<stop stop-color="#F7DD43"/>
<stop offset="1" stop-color="#F7DD43" stop-opacity="0"/>
</linearGradient>
<linearGradient id="paint3_linear_122_130" x1="68.5" y1="406" x2="68.5" y2="717.381" gradientUnits="userSpaceOnUse">
<stop stop-color="#F7DD43"/>
<stop offset="1" stop-color="#F7DD43" stop-opacity="0"/>
</linearGradient>
<linearGradient id="paint4_linear_122_130" x1="68.5" y1="406" x2="68.5" y2="717.381" gradientUnits="userSpaceOnUse">
<stop stop-color="#F7DD43"/>
<stop offset="1" stop-color="#F7DD43" stop-opacity="0"/>
</linearGradient>
<linearGradient id="paint5_linear_122_130" x1="68.5" y1="406" x2="68.5" y2="717.381" gradientUnits="userSpaceOnUse">
<stop stop-color="#F7DD43"/>
<stop offset="1" stop-color="#F7DD43" stop-opacity="0"/>
</linearGradient>
<linearGradient id="paint6_linear_122_130" x1="68.5" y1="406" x2="68.5" y2="717.381" gradientUnits="userSpaceOnUse">
<stop stop-color="#F7DD43"/>
<stop offset="1" stop-color="#F7DD43" stop-opacity="0"/>
</linearGradient>
<linearGradient id="paint7_linear_122_130" x1="68.5" y1="406" x2="68.5" y2="717.381" gradientUnits="userSpaceOnUse">
<stop stop-color="#F7DD43"/>
<stop offset="1" stop-color="#F7DD43" stop-opacity="0"/>
</linearGradient>
<linearGradient id="paint8_linear_122_130" x1="68.5" y1="406" x2="68.5" y2="717.381" gradientUnits="userSpaceOnUse">
<stop stop-color="#F7DD43"/>
<stop offset="1" stop-color="#F7DD43" stop-opacity="0"/>
</linearGradient>
<linearGradient id="paint9_linear_122_130" x1="68.5" y1="406" x2="68.5" y2="717.381" gradientUnits="userSpaceOnUse">
<stop stop-color="#F7DD43"/>
<stop offset="1" stop-color="#F7DD43" stop-opacity="0"/>
</linearGradient>
<linearGradient id="paint10_linear_122_130" x1="68.5" y1="406" x2="68.5" y2="717.381" gradientUnits="userSpaceOnUse">
<stop stop-color="#F7DD43"/>
<stop offset="1" stop-color="#F7DD43" stop-opacity="0"/>
</linearGradient>
<linearGradient id="paint11_linear_122_130" x1="68.5" y1="406" x2="68.5" y2="717.381" gradientUnits="userSpaceOnUse">
<stop stop-color="#F7DD43"/>
<stop offset="1" stop-color="#F7DD43" stop-opacity="0"/>
</linearGradient>
<linearGradient id="paint12_linear_122_130" x1="68.5" y1="406" x2="68.5" y2="717.381" gradientUnits="userSpaceOnUse">
<stop stop-color="#F7DD43"/>
<stop offset="1" stop-color="#F7DD43" stop-opacity="0"/>
</linearGradient>
<linearGradient id="paint13_linear_122_130" x1="68.5" y1="406" x2="68.5" y2="717.381" gradientUnits="userSpaceOnUse">
<stop stop-color="#F7DD43"/>
<stop offset="1" stop-color="#F7DD43" stop-opacity="0"/>
</linearGradient>
<linearGradient id="paint14_linear_122_130" x1="68.5" y1="406" x2="68.5" y2="717.381" gradientUnits="userSpaceOnUse">
<stop stop-color="#F7DD43"/>
<stop offset="1" stop-color="#F7DD43" stop-opacity="0"/>
</linearGradient>
<linearGradient id="paint15_linear_122_130" x1="68.5" y1="406" x2="68.5" y2="717.381" gradientUnits="userSpaceOnUse">
<stop stop-color="#F7DD43"/>
<stop offset="1" stop-color="#F7DD43" stop-opacity="0"/>
</linearGradient>
<linearGradient id="paint16_linear_122_130" x1="68.5" y1="406" x2="68.5" y2="717.381" gradientUnits="userSpaceOnUse">
<stop stop-color="#F7DD43"/>
<stop offset="1" stop-color="#F7DD43" stop-opacity="0"/>
</linearGradient>
<linearGradient id="paint17_linear_122_130" x1="68.5" y1="406" x2="68.5" y2="717.381" gradientUnits="userSpaceOnUse">
<stop stop-color="#F7DD43"/>
<stop offset="1" stop-color="#F7DD43" stop-opacity="0"/>
</linearGradient>
<linearGradient id="paint18_linear_122_130" x1="68.5" y1="406" x2="68.5" y2="717.381" gradientUnits="userSpaceOnUse">
<stop stop-color="#F7DD43"/>
<stop offset="1" stop-color="#F7DD43" stop-opacity="0"/>
</linearGradient>
<linearGradient id="paint19_linear_122_130" x1="68.5" y1="406" x2="68.5" y2="717.381" gradientUnits="userSpaceOnUse">
<stop stop-color="#F7DD43"/>
<stop offset="1" stop-color="#F7DD43" stop-opacity="0"/>
</linearGradient>
<linearGradient id="paint20_linear_122_130" x1="68.5" y1="406" x2="68.5" y2="717.381" gradientUnits="userSpaceOnUse">
<stop stop-color="#F7DD43"/>
<stop offset="1" stop-color="#F7DD43" stop-opacity="0"/>
</linearGradient>
<linearGradient id="paint21_linear_122_130" x1="68.5" y1="406" x2="68.5" y2="717.381" gradientUnits="userSpaceOnUse">
<stop stop-color="#F7DD43"/>
<stop offset="1" stop-color="#F7DD43" stop-opacity="0"/>
</linearGradient>
<linearGradient id="paint22_linear_122_130" x1="68.5" y1="406" x2="68.5" y2="717.381" gradientUnits="userSpaceOnUse">
<stop stop-color="#F7DD43"/>
<stop offset="1" stop-color="#F7DD43" stop-opacity="0"/>
</linearGradient>
<linearGradient id="paint23_linear_122_130" x1="68.5" y1="406" x2="68.5" y2="717.381" gradientUnits="userSpaceOnUse">
<stop stop-color="#F7DD43"/>
<stop offset="1" stop-color="#F7DD43" stop-opacity="0"/>
</linearGradient>
<linearGradient id="paint24_linear_122_130" x1="68.5" y1="406" x2="68.5" y2="717.381" gradientUnits="userSpaceOnUse">
<stop stop-color="#F7DD43"/>
<stop offset="1" stop-color="#F7DD43" stop-opacity="0"/>
</linearGradient>
<linearGradient id="paint25_linear_122_130" x1="68.5" y1="406" x2="68.5" y2="717.381" gradientUnits="userSpaceOnUse">
<stop stop-color="#F7DD43"/>
<stop offset="1" stop-color="#F7DD43" stop-opacity="0"/>
</linearGradient>
<linearGradient id="paint26_linear_122_130" x1="68.5" y1="406" x2="68.5" y2="717.381" gradientUnits="userSpaceOnUse">
<stop stop-color="#F7DD43"/>
<stop offset="1" stop-color="#F7DD43" stop-opacity="0"/>
</linearGradient>
<linearGradient id="paint27_linear_122_130" x1="68.5" y1="406" x2="68.5" y2="717.381" gradientUnits="userSpaceOnUse">
<stop stop-color="#F7DD43"/>
<stop offset="1" stop-color="#F7DD43" stop-opacity="0"/>
</linearGradient>
<linearGradient id="paint28_linear_122_130" x1="68.5" y1="406" x2="68.5" y2="717.381" gradientUnits="userSpaceOnUse">
<stop stop-color="#F7DD43"/>
<stop offset="1" stop-color="#F7DD43" stop-opacity="0"/>
</linearGradient>
<linearGradient id="paint29_linear_122_130" x1="68.5" y1="406" x2="68.5" y2="717.381" gradientUnits="userSpaceOnUse">
<stop stop-color="#F7DD43"/>
<stop offset="1" stop-color="#F7DD43" stop-opacity="0"/>
</linearGradient>
<linearGradient id="paint30_linear_122_130" x1="68.5" y1="406" x2="68.5" y2="717.381" gradientUnits="userSpaceOnUse">
<stop stop-color="#F7DD43"/>
<stop offset="1" stop-color="#F7DD43" stop-opacity="0"/>
</linearGradient>
<linearGradient id="paint31_linear_122_130" x1="68.5" y1="406" x2="68.5" y2="717.381" gradientUnits="userSpaceOnUse">
<stop stop-color="#F7DD43"/>
<stop offset="1" stop-color="#F7DD43" stop-opacity="0"/>
</linearGradient>
<linearGradient id="paint32_linear_122_130" x1="68.5" y1="406" x2="68.5" y2="717.381" gradientUnits="userSpaceOnUse">
<stop stop-color="#F7DD43"/>
<stop offset="1" stop-color="#F7DD43" stop-opacity="0"/>
</linearGradient>
<linearGradient id="paint33_linear_122_130" x1="68.5" y1="406" x2="68.5" y2="717.381" gradientUnits="userSpaceOnUse">
<stop stop-color="#F7DD43"/>
<stop offset="1" stop-color="#F7DD43" stop-opacity="0"/>
</linearGradient>
<linearGradient id="paint34_linear_122_130" x1="68.5" y1="406" x2="68.5" y2="717.381" gradientUnits="userSpaceOnUse">
<stop stop-color="#F7DD43"/>
<stop offset="1" stop-color="#F7DD43" stop-opacity="0"/>
</linearGradient>
<linearGradient id="paint35_linear_122_130" x1="68.5" y1="406" x2="68.5" y2="717.381" gradientUnits="userSpaceOnUse">
<stop stop-color="#F7DD43"/>
<stop offset="1" stop-color="#F7DD43" stop-opacity="0"/>
</linearGradient>
<linearGradient id="paint36_linear_122_130" x1="68.5" y1="406" x2="68.5" y2="717.381" gradientUnits="userSpaceOnUse">
<stop stop-color="#F7DD43"/>
<stop offset="1" stop-color="#F7DD43" stop-opacity="0"/>
</linearGradient>
<linearGradient id="paint37_linear_122_130" x1="68.5" y1="406" x2="68.5" y2="717.381" gradientUnits="userSpaceOnUse">
<stop stop-color="#F7DD43"/>
<stop offset="1" stop-color="#F7DD43" stop-opacity="0"/>
</linearGradient>
<linearGradient id="paint38_linear_122_130" x1="68.5" y1="406" x2="68.5" y2="717.381" gradientUnits="userSpaceOnUse">
<stop stop-color="#F7DD43"/>
<stop offset="1" stop-color="#F7DD43" stop-opacity="0"/>
</linearGradient>
<linearGradient id="paint39_linear_122_130" x1="68.5" y1="406" x2="68.5" y2="717.381" gradientUnits="userSpaceOnUse">
<stop stop-color="#F7DD43"/>
<stop offset="1" stop-color="#F7DD43" stop-opacity="0"/>
</linearGradient>
<linearGradient id="paint40_linear_122_130" x1="68.5" y1="406" x2="68.5" y2="717.381" gradientUnits="userSpaceOnUse">
<stop stop-color="#F7DD43"/>
<stop offset="1" stop-color="#F7DD43" stop-opacity="0"/>
</linearGradient>
<linearGradient id="paint41_linear_122_130" x1="68.5" y1="406" x2="68.5" y2="717.381" gradientUnits="userSpaceOnUse">
<stop stop-color="#F7DD43"/>
<stop offset="1" stop-color="#F7DD43" stop-opacity="0"/>
</linearGradient>
<linearGradient id="paint42_linear_122_130" x1="68.5" y1="406" x2="68.5" y2="717.381" gradientUnits="userSpaceOnUse">
<stop stop-color="#F7DD43"/>
<stop offset="1" stop-color="#F7DD43" stop-opacity="0"/>
</linearGradient>
<linearGradient id="paint43_linear_122_130" x1="68.5" y1="406" x2="68.5" y2="717.381" gradientUnits="userSpaceOnUse">
<stop stop-color="#F7DD43"/>
<stop offset="1" stop-color="#F7DD43" stop-opacity="0"/>
</linearGradient>
<linearGradient id="paint44_linear_122_130" x1="68.5" y1="406" x2="68.5" y2="717.381" gradientUnits="userSpaceOnUse">
<stop stop-color="#F7DD43"/>
<stop offset="1" stop-color="#F7DD43" stop-opacity="0"/>
</linearGradient>
<linearGradient id="paint45_linear_122_130" x1="68.5" y1="406" x2="68.5" y2="717.381" gradientUnits="userSpaceOnUse">
<stop stop-color="#F7DD43"/>
<stop offset="1" stop-color="#F7DD43" stop-opacity="0"/>
</linearGradient>
<linearGradient id="paint46_linear_122_130" x1="68.5" y1="406" x2="68.5" y2="717.381" gradientUnits="userSpaceOnUse">
<stop stop-color="#F7DD43"/>
<stop offset="1" stop-color="#F7DD43" stop-opacity="0"/>
</linearGradient>
<linearGradient id="paint47_linear_122_130" x1="954.5" y1="106" x2="954.5" y2="404.818" gradientUnits="userSpaceOnUse">
<stop stop-color="#F7DD43"/>
<stop offset="1" stop-color="#F7DD43" stop-opacity="0"/>
</linearGradient>
<linearGradient id="paint48_linear_122_130" x1="954.5" y1="106" x2="954.5" y2="404.818" gradientUnits="userSpaceOnUse">
<stop stop-color="#F7DD43"/>
<stop offset="1" stop-color="#F7DD43" stop-opacity="0"/>
</linearGradient>
<linearGradient id="paint49_linear_122_130" x1="954.5" y1="106" x2="954.5" y2="404.818" gradientUnits="userSpaceOnUse">
<stop stop-color="#F7DD43"/>
<stop offset="1" stop-color="#F7DD43" stop-opacity="0"/>
</linearGradient>
<linearGradient id="paint50_linear_122_130" x1="954.5" y1="106" x2="954.5" y2="404.818" gradientUnits="userSpaceOnUse">
<stop stop-color="#F7DD43"/>
<stop offset="1" stop-color="#F7DD43" stop-opacity="0"/>
</linearGradient>
<linearGradient id="paint51_linear_122_130" x1="954.5" y1="106" x2="954.5" y2="404.818" gradientUnits="userSpaceOnUse">
<stop stop-color="#F7DD43"/>
<stop offset="1" stop-color="#F7DD43" stop-opacity="0"/>
</linearGradient>
<linearGradient id="paint52_linear_122_130" x1="954.5" y1="106" x2="954.5" y2="404.818" gradientUnits="userSpaceOnUse">
<stop stop-color="#F7DD43"/>
<stop offset="1" stop-color="#F7DD43" stop-opacity="0"/>
</linearGradient>
<linearGradient id="paint53_linear_122_130" x1="954.5" y1="106" x2="954.5" y2="404.818" gradientUnits="userSpaceOnUse">
<stop stop-color="#F7DD43"/>
<stop offset="1" stop-color="#F7DD43" stop-opacity="0"/>
</linearGradient>
<linearGradient id="paint54_linear_122_130" x1="954.5" y1="106" x2="954.5" y2="404.818" gradientUnits="userSpaceOnUse">
<stop stop-color="#F7DD43"/>
<stop offset="1" stop-color="#F7DD43" stop-opacity="0"/>
</linearGradient>
<linearGradient id="paint55_linear_122_130" x1="954.5" y1="106" x2="954.5" y2="404.818" gradientUnits="userSpaceOnUse">
<stop stop-color="#F7DD43"/>
<stop offset="1" stop-color="#F7DD43" stop-opacity="0"/>
</linearGradient>
<linearGradient id="paint56_linear_122_130" x1="954.5" y1="106" x2="954.5" y2="404.818" gradientUnits="userSpaceOnUse">
<stop stop-color="#F7DD43"/>
<stop offset="1" stop-color="#F7DD43" stop-opacity="0"/>
</linearGradient>
<linearGradient id="paint57_linear_122_130" x1="954.5" y1="106" x2="954.5" y2="404.818" gradientUnits="userSpaceOnUse">
<stop stop-color="#F7DD43"/>
<stop offset="1" stop-color="#F7DD43" stop-opacity="0"/>
</linearGradient>
<linearGradient id="paint58_linear_122_130" x1="954.5" y1="106" x2="954.5" y2="404.818" gradientUnits="userSpaceOnUse">
<stop stop-color="#F7DD43"/>
<stop offset="1" stop-color="#F7DD43" stop-opacity="0"/>
</linearGradient>
<linearGradient id="paint59_linear_122_130" x1="954.5" y1="106" x2="954.5" y2="404.818" gradientUnits="userSpaceOnUse">
<stop stop-color="#F7DD43"/>
<stop offset="1" stop-color="#F7DD43" stop-opacity="0"/>
</linearGradient>
<linearGradient id="paint60_linear_122_130" x1="954.5" y1="106" x2="954.5" y2="404.818" gradientUnits="userSpaceOnUse">
<stop stop-color="#F7DD43"/>
<stop offset="1" stop-color="#F7DD43" stop-opacity="0"/>
</linearGradient>
<linearGradient id="paint61_linear_122_130" x1="954.5" y1="106" x2="954.5" y2="404.818" gradientUnits="userSpaceOnUse">
<stop stop-color="#F7DD43"/>
<stop offset="1" stop-color="#F7DD43" stop-opacity="0"/>
</linearGradient>
<linearGradient id="paint62_linear_122_130" x1="954.5" y1="106" x2="954.5" y2="404.818" gradientUnits="userSpaceOnUse">
<stop stop-color="#F7DD43"/>
<stop offset="1" stop-color="#F7DD43" stop-opacity="0"/>
</linearGradient>
<linearGradient id="paint63_linear_122_130" x1="954.5" y1="106" x2="954.5" y2="404.818" gradientUnits="userSpaceOnUse">
<stop stop-color="#F7DD43"/>
<stop offset="1" stop-color="#F7DD43" stop-opacity="0"/>
</linearGradient>
<linearGradient id="paint64_linear_122_130" x1="954.5" y1="106" x2="954.5" y2="404.818" gradientUnits="userSpaceOnUse">
<stop stop-color="#F7DD43"/>
<stop offset="1" stop-color="#F7DD43" stop-opacity="0"/>
</linearGradient>
<linearGradient id="paint65_linear_122_130" x1="954.5" y1="106" x2="954.5" y2="404.818" gradientUnits="userSpaceOnUse">
<stop stop-color="#F7DD43"/>
<stop offset="1" stop-color="#F7DD43" stop-opacity="0"/>
</linearGradient>
<linearGradient id="paint66_linear_122_130" x1="954.5" y1="106" x2="954.5" y2="404.818" gradientUnits="userSpaceOnUse">
<stop stop-color="#F7DD43"/>
<stop offset="1" stop-color="#F7DD43" stop-opacity="0"/>
</linearGradient>
<linearGradient id="paint67_linear_122_130" x1="954.5" y1="106" x2="954.5" y2="404.818" gradientUnits="userSpaceOnUse">
<stop stop-color="#F7DD43"/>
<stop offset="1" stop-color="#F7DD43" stop-opacity="0"/>
</linearGradient>
<linearGradient id="paint68_linear_122_130" x1="954.5" y1="106" x2="954.5" y2="404.818" gradientUnits="userSpaceOnUse">
<stop stop-color="#F7DD43"/>
<stop offset="1" stop-color="#F7DD43" stop-opacity="0"/>
</linearGradient>
<linearGradient id="paint69_linear_122_130" x1="954.5" y1="106" x2="954.5" y2="404.818" gradientUnits="userSpaceOnUse">
<stop stop-color="#F7DD43"/>
<stop offset="1" stop-color="#F7DD43" stop-opacity="0"/>
</linearGradient>
<linearGradient id="paint70_linear_122_130" x1="954.5" y1="106" x2="954.5" y2="404.818" gradientUnits="userSpaceOnUse">
<stop stop-color="#F7DD43"/>
<stop offset="1" stop-color="#F7DD43" stop-opacity="0"/>
</linearGradient>
<linearGradient id="paint71_linear_122_130" x1="954.5" y1="106" x2="954.5" y2="404.818" gradientUnits="userSpaceOnUse">
<stop stop-color="#F7DD43"/>
<stop offset="1" stop-color="#F7DD43" stop-opacity="0"/>
</linearGradient>
<linearGradient id="paint72_linear_122_130" x1="954.5" y1="106" x2="954.5" y2="404.818" gradientUnits="userSpaceOnUse">
<stop stop-color="#F7DD43"/>
<stop offset="1" stop-color="#F7DD43" stop-opacity="0"/>
</linearGradient>
<linearGradient id="paint73_linear_122_130" x1="954.5" y1="106" x2="954.5" y2="404.818" gradientUnits="userSpaceOnUse">
<stop stop-color="#F7DD43"/>
<stop offset="1" stop-color="#F7DD43" stop-opacity="0"/>
</linearGradient>
<linearGradient id="paint74_linear_122_130" x1="954.5" y1="106" x2="954.5" y2="404.818" gradientUnits="userSpaceOnUse">
<stop stop-color="#F7DD43"/>
<stop offset="1" stop-color="#F7DD43" stop-opacity="0"/>
</linearGradient>
<linearGradient id="paint75_linear_122_130" x1="954.5" y1="106" x2="954.5" y2="404.818" gradientUnits="userSpaceOnUse">
<stop stop-color="#F7DD43"/>
<stop offset="1" stop-color="#F7DD43" stop-opacity="0"/>
</linearGradient>
<linearGradient id="paint76_linear_122_130" x1="954.5" y1="106" x2="954.5" y2="404.818" gradientUnits="userSpaceOnUse">
<stop stop-color="#F7DD43"/>
<stop offset="1" stop-color="#F7DD43" stop-opacity="0"/>
</linearGradient>
<linearGradient id="paint77_linear_122_130" x1="954.5" y1="106" x2="954.5" y2="404.818" gradientUnits="userSpaceOnUse">
<stop stop-color="#F7DD43"/>
<stop offset="1" stop-color="#F7DD43" stop-opacity="0"/>
</linearGradient>
<linearGradient id="paint78_linear_122_130" x1="954.5" y1="106" x2="954.5" y2="404.818" gradientUnits="userSpaceOnUse">
<stop stop-color="#F7DD43"/>
<stop offset="1" stop-color="#F7DD43" stop-opacity="0"/>
</linearGradient>
<linearGradient id="paint79_linear_122_130" x1="954.5" y1="106" x2="954.5" y2="404.818" gradientUnits="userSpaceOnUse">
<stop stop-color="#F7DD43"/>
<stop offset="1" stop-color="#F7DD43" stop-opacity="0"/>
</linearGradient>
<linearGradient id="paint80_linear_122_130" x1="954.5" y1="106" x2="954.5" y2="404.818" gradientUnits="userSpaceOnUse">
<stop stop-color="#F7DD43"/>
<stop offset="1" stop-color="#F7DD43" stop-opacity="0"/>
</linearGradient>
<linearGradient id="paint81_linear_122_130" x1="954.5" y1="106" x2="954.5" y2="404.818" gradientUnits="userSpaceOnUse">
<stop stop-color="#F7DD43"/>
<stop offset="1" stop-color="#F7DD43" stop-opacity="0"/>
</linearGradient>
<linearGradient id="paint82_linear_122_130" x1="954.5" y1="106" x2="954.5" y2="404.818" gradientUnits="userSpaceOnUse">
<stop stop-color="#F7DD43"/>
<stop offset="1" stop-color="#F7DD43" stop-opacity="0"/>
</linearGradient>
<linearGradient id="paint83_linear_122_130" x1="954.5" y1="106" x2="954.5" y2="404.818" gradientUnits="userSpaceOnUse">
<stop stop-color="#F7DD43"/>
<stop offset="1" stop-color="#F7DD43" stop-opacity="0"/>
</linearGradient>
<linearGradient id="paint84_linear_122_130" x1="954.5" y1="106" x2="954.5" y2="404.818" gradientUnits="userSpaceOnUse">
<stop stop-color="#F7DD43"/>
<stop offset="1" stop-color="#F7DD43" stop-opacity="0"/>
</linearGradient>
<linearGradient id="paint85_linear_122_130" x1="954.5" y1="106" x2="954.5" y2="404.818" gradientUnits="userSpaceOnUse">
<stop stop-color="#F7DD43"/>
<stop offset="1" stop-color="#F7DD43" stop-opacity="0"/>
</linearGradient>
<linearGradient id="paint86_linear_122_130" x1="954.5" y1="106" x2="954.5" y2="404.818" gradientUnits="userSpaceOnUse">
<stop stop-color="#F7DD43"/>
<stop offset="1" stop-color="#F7DD43" stop-opacity="0"/>
</linearGradient>
<linearGradient id="paint87_linear_122_130" x1="954.5" y1="106" x2="954.5" y2="404.818" gradientUnits="userSpaceOnUse">
<stop stop-color="#F7DD43"/>
<stop offset="1" stop-color="#F7DD43" stop-opacity="0"/>
</linearGradient>
<linearGradient id="paint88_linear_122_130" x1="954.5" y1="106" x2="954.5" y2="404.818" gradientUnits="userSpaceOnUse">
<stop stop-color="#F7DD43"/>
<stop offset="1" stop-color="#F7DD43" stop-opacity="0"/>
</linearGradient>
<linearGradient id="paint89_linear_122_130" x1="954.5" y1="106" x2="954.5" y2="404.818" gradientUnits="userSpaceOnUse">
<stop stop-color="#F7DD43"/>
<stop offset="1" stop-color="#F7DD43" stop-opacity="0"/>
</linearGradient>
<linearGradient id="paint90_linear_122_130" x1="954.5" y1="106" x2="954.5" y2="404.818" gradientUnits="userSpaceOnUse">
<stop stop-color="#F7DD43"/>
<stop offset="1" stop-color="#F7DD43" stop-opacity="0"/>
</linearGradient>
<linearGradient id="paint91_linear_122_130" x1="954.5" y1="106" x2="954.5" y2="404.818" gradientUnits="userSpaceOnUse">
<stop stop-color="#F7DD43"/>
<stop offset="1" stop-color="#F7DD43" stop-opacity="0"/>
</linearGradient>
<linearGradient id="paint92_linear_122_130" x1="954.5" y1="106" x2="954.5" y2="404.818" gradientUnits="userSpaceOnUse">
<stop stop-color="#F7DD43"/>
<stop offset="1" stop-color="#F7DD43" stop-opacity="0"/>
</linearGradient>
<linearGradient id="paint93_linear_122_130" x1="954.5" y1="106" x2="954.5" y2="404.818" gradientUnits="userSpaceOnUse">
<stop stop-color="#F7DD43"/>
<stop offset="1" stop-color="#F7DD43" stop-opacity="0"/>
</linearGradient>
<clipPath id="clip0_122_130">
<rect width="1024" height="753" fill="white"/>
</clipPath>
<clipPath id="clip1_122_130">
<rect width="1341" height="933" fill="white" transform="translate(-142 -180)"/>
</clipPath>
</defs>
</svg>
